<?xml version="1.0" encoding="utf-8"?>
<!-- Generator: Adobe Illustrator 23.0.3, SVG Export Plug-In . SVG Version: 6.00 Build 0)  -->
<svg version="1.1" id="Layer_1" xmlns="http://www.w3.org/2000/svg" xmlns:xlink="http://www.w3.org/1999/xlink" x="0px" y="0px"
	 viewBox="0 0 15 20.5" style="enable-background:new 0 0 15 20.5;" xml:space="preserve">
<style type="text/css">
	.st0{fill:#A00105;stroke:#FFFFFF;stroke-miterlimit:10;}
	.st1{fill:#FFFFFF;}
</style>
<title>round-place</title>
<path class="st0" d="M7.5,0.5c-3.9,0-7,3.1-7,7c0,4.2,4.4,9.9,6.2,12.1c0.4,0.4,1,0.5,1.4,0.1c0,0,0.1-0.1,0.1-0.1
	c1.8-2.2,6.2-7.9,6.2-12.1C14.5,3.6,11.4,0.5,7.5,0.5z"/>
<path class="st1" d="M7.5,10C6.1,10,5,8.9,5,7.5S6.1,5,7.5,5S10,6.1,10,7.5C10,8.9,8.9,10,7.5,10C7.5,10,7.5,10,7.5,10z"/>
</svg>
